<?xml version="1.0" encoding="iso-8859-1"?>
<svg version="1.1" id="Capa_1" xmlns="http://www.w3.org/2000/svg" xmlns:xlink="http://www.w3.org/1999/xlink" x="0px" y="0px"
	 viewBox="0 0 512 512" style="enable-background:new 0 0 512 512;" xml:space="preserve">
		<path d="M450.232,224.592l0.01-0.011c-1.918-13.682,1.419,5.14-2.768-18.435l-10.317-1.832
			c-71.044-12.661-150.496,11.383-201.421,62.206c-0.044,0.044-0.088,0.088-0.132,0.132c-13.979,13.979-35.162-7.204-21.219-21.219
			c45.416-45.429,68.932-107.986,65.483-171.5c-0.493-9.074-1.537-18.169-3.145-27.236c-1.099-6.198-5.949-11.049-12.149-12.149
			c-17.729-3.153-39.333-4.427-57.433-3.019C90.501,40.827,0,137.874,0,256.043C0,380.559,100.485,481.04,224.996,481.04
			c108.073,0,201.155-75.605,222.646-178.388c0.016-0.079,0.04-0.156,0.059-0.234C452.957,277.121,453.908,250.801,450.232,224.592z"
			fill="#fff" />
		<path d="M507.603,148.448l-63.657-64.057c-5.861-5.861-15.358-5.861-21.219,0l-98.685,99.085
			c61.293-18.503,112.196-8.512,139.98-3.595c10.957,1.912,11.775,9.966,13.529,19.844l30.051-30.058
			C513.466,163.805,513.466,154.309,507.603,148.448z" fill="#fff"/>
</svg>
