<?xml version="1.0" encoding="UTF-8" standalone="no"?>
<!-- Generated by IcoMoon.io -->
<svg id="svg2" xmlns:rdf="http://www.w3.org/1999/02/22-rdf-syntax-ns#" xmlns="http://www.w3.org/2000/svg" height="16" width="16" version="1.1" xmlns:cc="http://creativecommons.org/ns#" xmlns:dc="http://purl.org/dc/elements/1.1/" viewBox="0 0 16 16">
 <metadata id="metadata12">
  <rdf:RDF>
   <cc:Work rdf:about="">
    <dc:format>image/svg+xml</dc:format>
    <dc:type rdf:resource="http://purl.org/dc/dcmitype/StillImage"/>
    <dc:title/>
   </cc:Work>
  </rdf:RDF>
 </metadata>
 <path id="path4" d="m16 10.1c0-4.4-3.6-8.1-8-8.1s-8 3.7-8 8.1c0 1.4 0.3 2.9 0.9 3.9h4.9c0.5 0.6 1.3 1 2.2 1s1.7-0.4 2.2-1h4.9c0.6-1 0.9-2.5 0.9-3.9zm-2-3.1v1l-4.1 3.5c0 0.1 0.1 0.3 0.1 0.5 0 1.1-0.9 2-2 2s-2-0.9-2-2 0.9-2 2-2c0.3 0 0.6 0.1 0.8 0.2l4.2-3.2h1zm-4-3h1v1h-1v-1zm-5 0h1v1h-1v-1zm-3 8h-1v-1h1v1zm1-4h-1v-1h1v1zm12 4h-1v-1h1v1z" fill="#fff"/>
 <path id="path6" d="m9 12c0 0.552-0.448 1-1 1s-1-0.448-1-1c0-0.552 0.448-1 1-1s1 0.448 1 1z" fill="#fff"/>
</svg>
