<?xml version="1.0" encoding="UTF-8" standalone="no"?>
<!-- Generated by IcoMoon.io -->

<svg
   xmlns:dc="http://purl.org/dc/elements/1.1/"
   xmlns:cc="http://creativecommons.org/ns#"
   xmlns:rdf="http://www.w3.org/1999/02/22-rdf-syntax-ns#"
   xmlns:svg="http://www.w3.org/2000/svg"
   xmlns="http://www.w3.org/2000/svg"
   xmlns:sodipodi="http://sodipodi.sourceforge.net/DTD/sodipodi-0.dtd"
   xmlns:inkscape="http://www.inkscape.org/namespaces/inkscape"
   version="1.1"
   width="16"
   height="16"
   viewBox="0 0 16 16"
   id="svg2"
   inkscape:version="0.91 r13725"
   sodipodi:docname="dashboard.svg">
  <metadata
     id="metadata12">
    <rdf:RDF>
      <cc:Work
         rdf:about="">
        <dc:format>image/svg+xml</dc:format>
        <dc:type
           rdf:resource="http://purl.org/dc/dcmitype/StillImage" />
        <dc:title></dc:title>
      </cc:Work>
    </rdf:RDF>
  </metadata>
  <defs
     id="defs10" />
  <sodipodi:namedview
     pagecolor="#ffffff"
     bordercolor="#666666"
     borderopacity="1"
     objecttolerance="10"
     gridtolerance="10"
     guidetolerance="10"
     inkscape:pageopacity="0"
     inkscape:pageshadow="2"
     inkscape:window-width="1920"
     inkscape:window-height="1057"
     id="namedview8"
     showgrid="false"
     inkscape:zoom="55.5"
     inkscape:cx="8"
     inkscape:cy="8"
     inkscape:window-x="1920"
     inkscape:window-y="23"
     inkscape:window-maximized="1"
     inkscape:current-layer="svg2" />
  <path
     fill="#444444"
     d="M16 10.1c0-4.4-3.6-8.1-8-8.1s-8 3.7-8 8.1c0 1.4 0.3 2.9 0.9 3.9h4.9c0.5 0.6 1.3 1 2.2 1s1.7-0.4 2.2-1h4.9c0.6-1 0.9-2.5 0.9-3.9zM14 7v1l-4.1 3.5c0 0.1 0.1 0.3 0.1 0.5 0 1.1-0.9 2-2 2s-2-0.9-2-2 0.9-2 2-2c0.3 0 0.6 0.1 0.8 0.2l4.2-3.2h1zM10 4h1v1h-1v-1zM5 4h1v1h-1v-1zM2 12h-1v-1h1v1zM3 8h-1v-1h1v1zM15 12h-1v-1h1v1z"
     id="path4"
     style="fill:#ffffff" />
  <path
     fill="#444444"
     d="M9 12c0 0.552-0.448 1-1 1s-1-0.448-1-1c0-0.552 0.448-1 1-1s1 0.448 1 1z"
     id="path6"
     style="fill:#ffffff" />
</svg>
