<?xml version="1.0" encoding="iso-8859-1"?>
<svg version="1.1" xmlns="http://www.w3.org/2000/svg" xmlns:xlink="http://www.w3.org/1999/xlink" x="0px" y="0px"
	 viewBox="0 0 218.084 218.084" style="enable-background:new 0 0 218.084 218.084;" xml:space="preserve">
<path d="M202.059,109.561c-5.479-6.054-13.276-9.387-21.65-9.387c-6.923,0-12.453,1.871-16.453,4.089V45.084h-48.681
	c2.387-4.629,3.571-9.759,3.571-15.491c0-8.374-3.334-16.004-9.388-21.484C103.682,2.88,95.879,0,87.485,0S71.288,2.88,65.512,8.108
	c-6.054,5.48-9.388,13.11-9.388,21.484c0,6.475,1.637,11.587,3.664,15.491H7.957v66.702l4.551-2.281
	c4.438-2.309,8.669-3.339,13.53-3.339c6.678,0,12.781,2.634,17.11,7.415c4.239,4.685,6.595,11.06,6.595,17.953
	c0,6.909-2.317,13.285-6.541,17.953c-4.33,4.782-10.395,7.416-17.09,7.416c-6.262,0-10.651-1.74-13.633-3.256l-4.523-2.216v66.652
	h59.476l-2.634-4.513c-2.591-4.438-3.798-8.931-3.798-14.136c0-6.645,2.634-12.688,7.415-17.017
	c4.666-4.224,11.042-6.549,17.953-6.549c6.9,0,13.276,2.331,17.953,6.564c4.782,4.33,7.416,10.366,7.416,16.998
	c0,5.239-1.178,9.74-3.705,14.163l-2.565,4.488h58.489v-59.171c5,2.67,10.391,3.983,16.453,3.983c8.374,0,16.087-3.333,21.567-9.387
	c5.229-5.776,8.151-13.58,8.151-21.974S207.289,115.337,202.059,109.561z"/>
</svg>
